<svg width="50" height="50" viewBox="0 0 50 50" fill="none" xmlns="http://www.w3.org/2000/svg">
<g clip-path="url(#clip0_423_245)">
<path d="M34.1466 33.0132C32.5618 30.2397 34.1466 25.89 34.1466 25.89C36.4131 19.9811 30.8167 18.689 27.4078 18.4365C27.4078 18.4365 27.4071 18.4365 27.4064 18.4365V8.61967C27.4071 8.61967 27.4071 8.61901 27.4071 8.61901C27.8514 8.36718 28.152 7.89383 28.152 7.34204V6.39734H29.0724C29.5635 6.39734 29.9604 6.00377 29.9604 5.51527C29.9604 5.02677 29.5635 4.63254 29.0724 4.63254H28.152V4.19084H29.0724C29.5635 4.19084 29.9604 3.79661 29.9604 3.30877C29.9604 2.82092 29.5635 2.42669 29.0724 2.42669H28.152V1.46485C28.152 0.661226 27.4862 0 26.6621 0H23.3323C22.524 0 21.8582 0.661226 21.8582 1.46485V2.42603H20.9386C20.4468 2.42603 20.0505 2.82026 20.0505 3.30811C20.0505 3.79661 20.4474 4.19018 20.9386 4.19018H21.8582V4.63188H20.9386C20.4468 4.63188 20.0505 5.02611 20.0505 5.51461C20.0505 6.00311 20.4474 6.39668 20.9386 6.39668H21.8582V7.34204C21.8582 7.89054 22.1575 8.36124 22.5972 8.61439V18.4365C19.1876 18.6739 13.5833 19.9686 15.8492 25.8893C15.8492 25.8893 17.4505 30.2397 15.8492 33.0118C14.2637 35.7701 4.71842 48.0302 24.6013 50.0007H25.3944C45.2773 48.0308 35.7321 35.7695 34.1466 33.0132ZM25.8539 4.63254V4.19084V2.42669V2.20584C25.8539 1.95335 26.0431 1.76415 26.2976 1.76415C26.5349 1.76415 26.7413 1.95335 26.7413 2.20584V2.42669V4.19084V4.63254V6.23978C26.7413 6.30307 26.7261 6.34988 26.7096 6.39734C26.647 6.57072 26.4874 6.68082 26.2976 6.68082C26.1071 6.68082 25.9482 6.57072 25.8849 6.39734C25.8697 6.34988 25.8539 6.30307 25.8539 6.23978V4.63254ZM23.269 4.63254V4.19084V2.42669V2.20584C23.269 1.95335 23.4595 1.76415 23.7133 1.76415C23.9507 1.76415 24.157 1.95335 24.157 2.20584V2.42669V4.19084V4.63254V6.23978C24.157 6.30307 24.1418 6.34988 24.1254 6.39734C24.0621 6.57072 23.9032 6.68082 23.7133 6.68082C23.5228 6.68082 23.3639 6.57072 23.3006 6.39734C23.2855 6.34988 23.269 6.30307 23.269 6.23978V4.63254ZM24.9982 28.3015C27.0438 28.3015 28.7071 29.9556 28.7071 31.9887C28.7071 34.0211 27.0432 35.66 24.9982 35.66C22.9532 35.66 21.3038 34.0211 21.3038 31.9887C21.3031 29.9556 22.9526 28.3015 24.9982 28.3015ZM29.0724 42.058H20.9386C20.4468 42.058 20.0505 41.6638 20.0505 41.1746C20.0505 40.6868 20.4474 40.2926 20.9386 40.2926H29.0724C29.5635 40.2926 29.9604 40.6868 29.9604 41.1746C29.9604 41.6645 29.5635 42.058 29.0724 42.058Z" fill="#C54D20"/>
</g>
<defs>
<clipPath id="clip0_423_245">
<rect width="50" height="50" fill="white"/>
</clipPath>
</defs>
</svg>
