<svg width="30" height="30" viewBox="0 0 30 30" fill="none" xmlns="http://www.w3.org/2000/svg">
<g clip-path="url(#clip0_419_241)">
<path d="M20.4895 19.8079C19.5386 18.1438 20.4895 15.534 20.4895 15.534C21.8494 11.9887 18.4916 11.2134 16.4462 11.0619C16.4462 11.0619 16.4458 11.0619 16.4454 11.0619V5.1718C16.4458 5.1718 16.4458 5.1714 16.4458 5.1714C16.7124 5.02031 16.8928 4.7363 16.8928 4.40523V3.83841H17.445C17.7397 3.83841 17.9778 3.60226 17.9778 3.30916C17.9778 3.01606 17.7397 2.77952 17.445 2.77952H16.8928V2.5145H17.445C17.7397 2.5145 17.9778 2.27797 17.9778 1.98526C17.9778 1.69255 17.7397 1.45601 17.445 1.45601H16.8928V0.878909C16.8928 0.396735 16.4933 0 15.9988 0H14.0009C13.516 0 13.1165 0.396735 13.1165 0.878909V1.45562H12.5647C12.2696 1.45562 12.0319 1.69216 12.0319 1.98486C12.0319 2.27797 12.27 2.51411 12.5647 2.51411H13.1165V2.77913H12.5647C12.2696 2.77913 12.0319 3.01566 12.0319 3.30877C12.0319 3.60187 12.27 3.83801 12.5647 3.83801H13.1165V4.40523C13.1165 4.73432 13.2961 5.01675 13.5599 5.16864V11.0619C11.5141 11.2043 8.15156 11.9812 9.51106 15.5336C9.51106 15.5336 10.4718 18.1438 9.51106 19.8071C8.55976 21.4621 2.83261 28.8181 14.7624 30.0004H15.2382C27.168 28.8185 21.4408 21.4617 20.4895 19.8079ZM15.5139 2.77952V2.5145V1.45601V1.32351C15.5139 1.17201 15.6274 1.05849 15.7801 1.05849C15.9225 1.05849 16.0463 1.17201 16.0463 1.32351V1.45601V2.5145V2.77952V3.74387C16.0463 3.78184 16.0372 3.80993 16.0273 3.83841C15.9898 3.94243 15.894 4.00849 15.7801 4.00849C15.6658 4.00849 15.5705 3.94243 15.5325 3.83841C15.5234 3.80993 15.5139 3.78184 15.5139 3.74387V2.77952ZM13.963 2.77952V2.5145V1.45601V1.32351C13.963 1.17201 14.0773 1.05849 14.2296 1.05849C14.372 1.05849 14.4958 1.17201 14.4958 1.32351V1.45601V2.5145V2.77952V3.74387C14.4958 3.78184 14.4867 3.80993 14.4768 3.83841C14.4388 3.94243 14.3435 4.00849 14.2296 4.00849C14.1152 4.00849 14.0199 3.94243 13.9819 3.83841C13.9728 3.80993 13.963 3.78184 13.963 3.74387V2.77952ZM15.0005 16.9809C16.2279 16.9809 17.2258 17.9733 17.2258 19.1932C17.2258 20.4127 16.2275 21.396 15.0005 21.396C13.7735 21.396 12.7838 20.4127 12.7838 19.1932C12.7834 17.9733 13.7731 16.9809 15.0005 16.9809ZM17.445 25.2348H12.5647C12.2696 25.2348 12.0319 24.9983 12.0319 24.7048C12.0319 24.4121 12.27 24.1755 12.5647 24.1755H17.445C17.7397 24.1755 17.9778 24.4121 17.9778 24.7048C17.9778 24.9987 17.7397 25.2348 17.445 25.2348Z" fill="#C54D20"/>
</g>
<defs>
<clipPath id="clip0_419_241">
<rect width="30" height="30" fill="white"/>
</clipPath>
</defs>
</svg>
