<svg width="39" height="46" viewBox="0 0 39 46" fill="none" xmlns="http://www.w3.org/2000/svg">
<path d="M4.108 14.692L3.94 15C3.422 14.972 2.778 14.958 2.148 14.958C1.518 14.958 1.098 14.972 0.552 15L0.468 14.692C0.874 14.552 1.308 14.37 1.714 14.104L4.514 5.984L3.114 5.494L3.282 5.186C4.234 5.172 5.774 5.13 6.74 5.032L8.028 11.738H8.126L12.144 5.046C13.082 5.158 14.622 5.186 15.56 5.2L15.644 5.508L14.258 5.942L13.026 14.118C13.278 14.37 13.558 14.552 13.866 14.678L13.698 14.986C13.18 14.958 12.41 14.944 11.78 14.944C11.192 14.944 10.59 14.958 10.044 14.986L9.96 14.678C10.324 14.552 10.688 14.384 11.052 14.16L12.172 6.642H12.116L7.79 13.852H6.558L5.088 6.628H4.976L3.17 14.132C3.45 14.384 3.8 14.552 4.108 14.692Z" fill="#C54D20"/>
<path d="M20.5349 13.208L20.6329 13.502C20.1149 14.174 19.0649 15.168 17.7909 15.168C16.1529 15.168 15.2849 13.936 15.2849 12.606C15.2849 10.436 17.1329 8 19.7789 8C20.9269 8 21.6409 8.364 21.6409 9.218C21.6409 10.478 19.8629 11.43 18.0289 11.724L17.2729 11.85V12.046C17.2729 13.222 17.8189 13.964 18.8269 13.964C19.3309 13.964 19.9609 13.726 20.5349 13.208ZM19.1209 8.644C18.1689 8.644 17.4129 9.876 17.2869 11.444L17.9729 11.332C19.0369 11.164 19.6529 10.184 19.6529 9.274C19.6529 8.882 19.4709 8.644 19.1209 8.644ZM29.6926 14.02L29.7206 14.3C29.3706 14.804 28.6006 15.168 27.7746 15.168C27.0326 15.168 26.5006 14.874 26.5006 14.272C26.5006 14.104 26.5566 13.796 26.6406 13.488L27.2846 11.164C27.4806 10.464 27.5646 10.03 27.5646 9.75C27.5646 9.428 27.4246 9.302 27.1306 9.302C26.2626 9.302 25.1146 10.66 24.6946 12.27L23.9666 15H22.0346L23.5886 9.022L22.3706 8.952L22.4546 8.63C23.5186 8.49 24.6246 8.238 25.4926 8L25.8286 8.182L24.8066 10.73L24.9186 10.772C25.9826 9.008 27.0046 8 28.2226 8C29.1326 8 29.6226 8.49 29.6226 9.274C29.6226 9.596 29.5666 10.002 29.4266 10.506L28.5586 13.544C28.4886 13.782 28.4746 13.908 28.4746 14.006C28.4746 14.3 28.6286 14.454 28.8946 14.454C29.1886 14.454 29.4126 14.286 29.6086 14.02H29.6926ZM32.3295 15.168C31.4055 15.168 30.9015 14.692 30.9015 13.894C30.9015 13.572 30.9715 13.152 31.1255 12.662L32.2035 9.05L30.9295 8.966L31.0135 8.658C31.4475 8.588 33.0715 8.294 34.0655 8L34.3875 8.21L33.2535 12.004C33.0435 12.718 32.9595 13.138 32.9595 13.432C32.9595 13.754 33.1275 13.866 33.4215 13.866C34.2755 13.866 35.5915 12.074 35.9555 10.8L36.6835 8.168H38.5595L37.2015 13.432C37.1455 13.67 37.1035 13.88 37.1035 13.992C37.1035 14.272 37.2575 14.412 37.5235 14.412C37.8035 14.412 38.0135 14.286 38.2235 14.02H38.3075L38.3355 14.3C37.9995 14.804 37.1875 15.168 36.2775 15.168C35.7455 15.168 35.2555 14.958 35.2555 14.3C35.2555 13.838 35.4655 13.04 35.7875 12.172L35.7175 12.13C34.7515 13.908 33.6175 15.168 32.3295 15.168Z" fill="#030711"/>
<path d="M30.0889 18C29.6742 18 29.2662 18.0287 28.8603 18.0624V20.4283V39.3846C28.222 39.0643 27.5055 38.8317 26.7607 38.7031C23.9314 38.2168 21.368 39.3126 21.0355 41.1506C20.7043 42.9881 22.728 44.8711 25.5562 45.357C28.3855 45.8434 30.9489 44.7475 31.2814 42.9095C31.2999 42.7635 31.3071 42.6101 31.3174 42.4896V20.9874C34.7831 22.269 37.0646 25.4195 37.0691 28.9298C37.0661 30.9069 36.3359 32.8218 35.0031 34.348V35.5285C37.4951 33.74 38.9917 30.7521 38.9983 27.5525C38.9954 22.8756 35.8409 18.896 31.5382 18.0744C31.0613 18.0277 30.5781 18 30.0889 18Z" fill="#010101"/>
<rect x="1" y="23.999" width="21.3313" height="1.33321" fill="#010101"/>
<rect x="1" y="31.998" width="21.3313" height="1.33321" fill="#010101"/>
<rect x="1" y="39.998" width="11.3323" height="1.33321" fill="#010101"/>
</svg>
